<svg id="Layer_1" data-name="Layer 1" xmlns="http://www.w3.org/2000/svg" xmlns:xlink="http://www.w3.org/1999/xlink" viewBox="0 0 1665.38 678.88"><defs><style>.cls-1{fill:#fff;}.cls-2{fill:#777878;}.cls-3{fill:#ba131a;}.cls-4{fill:url(#linear-gradient);}.cls-5{fill:none;}</style><linearGradient id="linear-gradient" x1="401.44" y1="339.44" x2="717.57" y2="339.44" gradientUnits="userSpaceOnUse"><stop offset="0" stop-color="#9e0b0f"/><stop offset="0.35" stop-color="#a70e13"/><stop offset="0.55" stop-color="#ce181e"/><stop offset="1" stop-color="#d71920"/></linearGradient></defs><title>LOGO – Aprovado + SLOGAN</title><rect class="cls-1" width="1665.38" height="685.33"/><path class="cls-2" d="M900.66,302.16q5.59,2.89,11.27,6a61.37,61.37,0,0,1,10.28,7.12,34.51,34.51,0,0,1,7.48,9,23.23,23.23,0,0,1,2.89,11.72q0,16.41-8.75,25.43t-25.7,9A37,37,0,0,1,884.24,368a31.71,31.71,0,0,1-18-18,37,37,0,0,1-2.52-13.89,5.55,5.55,0,0,1,5.77-5.77,5.71,5.71,0,0,1,4.06,1.62,5.47,5.47,0,0,1,1.71,4.15q0,10.28,6.22,16.59T898.13,359q7.75,0,12.27-2.16a16.93,16.93,0,0,0,6.85-5.59,19,19,0,0,0,3.06-7.39,43.39,43.39,0,0,0,.72-7.75,13.29,13.29,0,0,0-1.8-6.85,23,23,0,0,0-5.14-5.86,52.09,52.09,0,0,0-8-5.41q-4.69-2.61-10.46-5.5-5.6-2.71-11.27-5.86a60.88,60.88,0,0,1-10.28-7.12,34.4,34.4,0,0,1-7.48-9,23.19,23.19,0,0,1-2.89-11.72q0-16.41,8.75-25.43t25.7-9A36,36,0,0,1,912,246.88a33.22,33.22,0,0,1,10.91,7.21A32.11,32.11,0,0,1,930.06,265a36.59,36.59,0,0,1,2.52,13.71,5.7,5.7,0,0,1-1.62,4.06,5.46,5.46,0,0,1-4.15,1.71,5.85,5.85,0,0,1-5.77-5.77q0-10.28-6.22-16.59t-16.68-6.31q-7.76,0-12.27,2.16a16.91,16.91,0,0,0-6.85,5.59,18.93,18.93,0,0,0-3.06,7.39,43.15,43.15,0,0,0-.72,7.76,13.26,13.26,0,0,0,1.8,6.85,21.59,21.59,0,0,0,5.14,5.77,56.2,56.2,0,0,0,8,5.32Q894.88,299.27,900.66,302.16Z"/><path class="cls-2" d="M967,327.41V359h51.58a5.46,5.46,0,0,1,4.15,1.71,5.7,5.7,0,0,1,1.63,4.06,5.56,5.56,0,0,1-5.77,5.77H961.26a5.56,5.56,0,0,1-5.77-5.77V250a5.56,5.56,0,0,1,5.77-5.77h57.35a5.56,5.56,0,0,1,5.77,5.77,5.69,5.69,0,0,1-1.63,4.06,5.46,5.46,0,0,1-4.15,1.71H967V316h40a5.62,5.62,0,0,1,4.15,1.62,5.4,5.4,0,0,1,1.63,4,5.56,5.56,0,0,1-5.77,5.77Z"/><path class="cls-2" d="M1112,285.92a57,57,0,0,1-1.44,12.9,42.51,42.51,0,0,1-4.42,11.45,35.33,35.33,0,0,1-7.67,9.29,32.4,32.4,0,0,1-11.36,6.22l24,35.71a5.79,5.79,0,0,1,.81,4.33,5.92,5.92,0,0,1-2.44,3.79,9.48,9.48,0,0,1-3.24.9,5.23,5.23,0,0,1-4.69-2.53l-27.05-40.58h-19.84v37.33a5.47,5.47,0,0,1-1.71,4.15,5.71,5.71,0,0,1-4.06,1.62,5.56,5.56,0,0,1-5.77-5.77V250a5.56,5.56,0,0,1,5.77-5.77h28.68q.36,0,1.89.09a24.5,24.5,0,0,1,3.88.63,46.16,46.16,0,0,1,5.32,1.62,35.06,35.06,0,0,1,6.22,3.06,39.21,39.21,0,0,1,6,4.69,30,30,0,0,1,5.5,7.21,44.84,44.84,0,0,1,4.06,10.37A54,54,0,0,1,1112,285.92ZM1054.68,316h22.91a27,27,0,0,0,10.64-3.25,21.46,21.46,0,0,0,7-6.49,27.76,27.76,0,0,0,4-9.2,47.71,47.71,0,0,0,1.26-11.18,46.93,46.93,0,0,0-1.26-11,28.86,28.86,0,0,0-4-9.29,22,22,0,0,0-7-6.67,24.42,24.42,0,0,0-10.64-3.16h-22.91Z"/><path class="cls-2" d="M1166.14,366.18c-.24.6-.39,1-.45,1.17s-.15.27-.27.27l-.18.54-.72.72c-.24.24-.42.36-.54.36a14.93,14.93,0,0,1-2,1,6.53,6.53,0,0,1-2.16.27,1.5,1.5,0,0,0-.63-.18,1.43,1.43,0,0,1-.63-.18,1.08,1.08,0,0,1-.54-.27,1.12,1.12,0,0,0-.54-.27l-.18-.18-.36-.18-.18-.18a4.07,4.07,0,0,1-.54-.63,4.61,4.61,0,0,0-.54-.63l-.54-.9a1.05,1.05,0,0,0-.18-.72L1126.28,251.3a5.7,5.7,0,0,1,.63-4.33,5.28,5.28,0,0,1,3.52-2.53,3.83,3.83,0,0,1,1.44-.18,5.22,5.22,0,0,1,5.59,4.33l23.08,92.52,23.08-92.52a5.22,5.22,0,0,1,5.59-4.33,3.83,3.83,0,0,1,1.44.18,5.3,5.3,0,0,1,3.52,2.53,5.71,5.71,0,0,1,.63,4.33Z"/><path class="cls-2" d="M1224.75,364.74a5.46,5.46,0,0,1-1.71,4.15,5.7,5.7,0,0,1-4.06,1.62,5.56,5.56,0,0,1-5.77-5.77V250a5.56,5.56,0,0,1,5.77-5.77,5.7,5.7,0,0,1,4.06,1.62,5.46,5.46,0,0,1,1.71,4.15Z"/><path class="cls-2" d="M1283.91,370.51A37,37,0,0,1,1270,368a31.68,31.68,0,0,1-18-18,37,37,0,0,1-2.52-13.89V278.71a37,37,0,0,1,2.52-13.89,31.69,31.69,0,0,1,18-18,37.1,37.1,0,0,1,13.89-2.52,36,36,0,0,1,13.89,2.62,33.22,33.22,0,0,1,10.91,7.21,32.1,32.1,0,0,1,7.12,10.91,36.59,36.59,0,0,1,2.53,13.71,5.69,5.69,0,0,1-1.63,4.06,5.88,5.88,0,0,1-8.3,0,5.7,5.7,0,0,1-1.62-4.06q0-10.46-6.22-16.68t-16.68-6.22q-10.11,0-15.33,4.87t-7.22,14.07c-.12.72-.21,1.42-.27,2.07s-.09,1.29-.09,1.89v57.35q0,10.28,6.22,16.59t16.68,6.31q10.1,0,15.33-5t7.21-14.16c.12-.6.21-1.23.27-1.89s.09-1.29.09-1.89a5.46,5.46,0,0,1,1.71-4.15,5.7,5.7,0,0,1,4.06-1.62,5.46,5.46,0,0,1,4.15,1.71,5.7,5.7,0,0,1,1.63,4.06,36.57,36.57,0,0,1-2.53,13.71,32.09,32.09,0,0,1-7.12,10.91,33.2,33.2,0,0,1-10.91,7.21A35.92,35.92,0,0,1,1283.91,370.51Z"/><path class="cls-2" d="M1351.72,327.41V359h51.58a5.47,5.47,0,0,1,4.15,1.71,5.71,5.71,0,0,1,1.62,4.06,5.56,5.56,0,0,1-5.77,5.77H1346a5.56,5.56,0,0,1-5.77-5.77V250a5.56,5.56,0,0,1,5.77-5.77h57.35a5.56,5.56,0,0,1,5.77,5.77,5.7,5.7,0,0,1-1.62,4.06,5.46,5.46,0,0,1-4.15,1.71h-51.58V316h40a5.62,5.62,0,0,1,4.15,1.62,5.4,5.4,0,0,1,1.62,4,5.56,5.56,0,0,1-5.77,5.77Z"/><path class="cls-2" d="M1460.66,302.16q5.59,2.89,11.27,6a61.21,61.21,0,0,1,10.28,7.12,34.39,34.39,0,0,1,7.48,9,23.23,23.23,0,0,1,2.89,11.72q0,16.41-8.75,25.43t-25.7,9a37,37,0,0,1-13.89-2.53,31.69,31.69,0,0,1-18-18,37,37,0,0,1-2.53-13.89,5.56,5.56,0,0,1,5.77-5.77,5.71,5.71,0,0,1,4.06,1.62,5.47,5.47,0,0,1,1.72,4.15q0,10.28,6.22,16.59t16.68,6.31q7.75,0,12.27-2.16a16.91,16.91,0,0,0,6.85-5.59,19,19,0,0,0,3.07-7.39,43.38,43.38,0,0,0,.72-7.75,13.29,13.29,0,0,0-1.8-6.85,23.08,23.08,0,0,0-5.14-5.86,51.94,51.94,0,0,0-8-5.41q-4.69-2.61-10.46-5.5-5.59-2.71-11.27-5.86a60.85,60.85,0,0,1-10.28-7.12,34.35,34.35,0,0,1-7.49-9,23.22,23.22,0,0,1-2.89-11.72q0-16.41,8.75-25.43t25.7-9a36,36,0,0,1,13.89,2.62,33.23,33.23,0,0,1,10.91,7.21,32.15,32.15,0,0,1,7.12,10.91,36.59,36.59,0,0,1,2.53,13.71,5.7,5.7,0,0,1-1.63,4.06,5.46,5.46,0,0,1-4.15,1.71,5.85,5.85,0,0,1-5.77-5.77q0-10.28-6.22-16.59t-16.68-6.31q-7.75,0-12.26,2.16a16.92,16.92,0,0,0-6.86,5.59,19,19,0,0,0-3.06,7.39,43.14,43.14,0,0,0-.72,7.76,13.26,13.26,0,0,0,1.8,6.85,21.66,21.66,0,0,0,5.14,5.77,56,56,0,0,0,8,5.32Q1454.88,299.27,1460.66,302.16Z"/><path class="cls-3" d="M879.34,406.71a6.71,6.71,0,0,0-5.75-3.06,5.41,5.41,0,0,0-3.82,1.24,3.91,3.91,0,0,0-1.4,3,3.1,3.1,0,0,0,1.5,2.74,20.27,20.27,0,0,0,3.39,1.61l2.42,1a12.84,12.84,0,0,1,4.46,3,7.61,7.61,0,0,1,2.2,5.75,13.71,13.71,0,0,1-3.82,9.78c-3,2.85-6.83,3.39-9.78,3.39a12.73,12.73,0,0,1-7.36-2,16.68,16.68,0,0,1-4.57-4.73l5.11-4.35a12.18,12.18,0,0,0,2.53,3.28,6.56,6.56,0,0,0,4.51,1.51,6,6,0,0,0,4.68-1.77,5.23,5.23,0,0,0,1.34-3.71,3.91,3.91,0,0,0-1.61-3.28,12.78,12.78,0,0,0-3.65-1.77l-2-.86a13.66,13.66,0,0,1-4.36-2.63,7.75,7.75,0,0,1-2.2-5.91,10.48,10.48,0,0,1,3.06-7.74c2.9-2.9,6.56-3.44,9.73-3.44a12.28,12.28,0,0,1,9.67,4.19Z"/><path class="cls-3" d="M914,413.69a10.87,10.87,0,0,1,3,7.74,13.37,13.37,0,0,1-4.14,9.78c-3.06,2.9-6.56,3.92-10.7,3.92-3.33,0-6.45-.7-9-3.22a10.63,10.63,0,0,1-3.06-7.9,13.89,13.89,0,0,1,4-9.73c1.88-1.83,5.21-3.92,10.64-3.92C909.34,410.36,912.19,411.92,914,413.69Zm-6.07,13.6a7.75,7.75,0,0,0,2.2-5.21,6.24,6.24,0,0,0-1.72-4.3,6.32,6.32,0,0,0-4.25-1.61,7.44,7.44,0,0,0-4.95,1.88,7.73,7.73,0,0,0-2.31,5.54,6.11,6.11,0,0,0,1.61,4.09,6.34,6.34,0,0,0,4.3,1.67A7.27,7.27,0,0,0,907.89,427.29Z"/><path class="cls-3" d="M935.74,395.2l-4.84,39.18h-6.56l4.84-39.18Z"/><path class="cls-3" d="M950.26,411.11l-1.4,11.61c-.22,1.88-.27,2.47-.27,2.8a3.84,3.84,0,0,0,1,2.85,4.52,4.52,0,0,0,3.28,1.18,5.16,5.16,0,0,0,3.6-1.29c1.24-1.18,1.5-2.79,1.77-4.89l1.5-12.25h6.56L964.72,424c-.54,4.3-1.56,7.63-5.05,9.62a14.52,14.52,0,0,1-6.93,1.56,13.73,13.73,0,0,1-7.68-2,7.63,7.63,0,0,1-3.12-6.4,30.05,30.05,0,0,1,.32-3.66l1.45-12Z"/><path class="cls-3" d="M993,418.21a7.73,7.73,0,0,0-5.53-2,6.56,6.56,0,0,0-4.84,1.83,7.66,7.66,0,0,0-2.15,5.32,6,6,0,0,0,1.61,4.24,6.11,6.11,0,0,0,4.41,1.77,8.17,8.17,0,0,0,5.38-2l-.75,6.4a12.46,12.46,0,0,1-6.13,1.45,11.85,11.85,0,0,1-8.49-3.28,10.84,10.84,0,0,1-2.9-7.85,13.68,13.68,0,0,1,3.76-9.78c2.79-2.85,6.07-3.87,10-3.87a14.16,14.16,0,0,1,6.45,1.4Zm-5.11,21-7.63,7.85-3.44-1.93,6.34-8.28Z"/><path class="cls-3" d="M1023.9,413.69a10.87,10.87,0,0,1,3,7.74,13.37,13.37,0,0,1-4.14,9.78c-3.06,2.9-6.56,3.92-10.7,3.92-3.33,0-6.45-.7-9-3.22A10.63,10.63,0,0,1,1000,424a13.89,13.89,0,0,1,4-9.73c1.88-1.83,5.21-3.92,10.64-3.92C1019.28,410.36,1022.13,411.92,1023.9,413.69Zm1.29-11.5a15.46,15.46,0,0,1-2.37,2.9,5.29,5.29,0,0,1-3.71,1.45,8.62,8.62,0,0,1-3.76-1l-1.72-.75a7.88,7.88,0,0,0-2.63-.75c-1.4,0-2.63,1.29-3.22,2.2l-3-2.58A14.41,14.41,0,0,1,1007,401a6.27,6.27,0,0,1,4.46-1.67,8,8,0,0,1,3.38.81l1.93.81a7.65,7.65,0,0,0,2.8.86,3.25,3.25,0,0,0,2.69-2.2Zm-7.36,25.1a7.75,7.75,0,0,0,2.2-5.21,6.24,6.24,0,0,0-1.72-4.3,6.32,6.32,0,0,0-4.25-1.61,7.44,7.44,0,0,0-4.95,1.88,7.73,7.73,0,0,0-2.31,5.54,6.11,6.11,0,0,0,1.61,4.09,6.34,6.34,0,0,0,4.3,1.67A7.27,7.27,0,0,0,1017.83,427.29Z"/><path class="cls-3" d="M1057.94,428.15a12.88,12.88,0,0,1-4.95,5.43,14.27,14.27,0,0,1-7,1.56c-3.12,0-6.18-.59-8.65-3.22a10.47,10.47,0,0,1-2.79-7.53,15.05,15.05,0,0,1,4-10.59,12.41,12.41,0,0,1,9.3-3.44c2.79,0,5.7.54,8,2.69,2.53,2.42,3,5.59,3,8.44a15.27,15.27,0,0,1-.11,2.36h-17.41a5.42,5.42,0,0,0,1.35,4.68,5,5,0,0,0,3.82,1.45,7.39,7.39,0,0,0,3.55-.75,6.91,6.91,0,0,0,2.26-2.42Zm-4.84-8.49a5.05,5.05,0,0,0-1.45-3.39A5.43,5.43,0,0,0,1048,415a5.85,5.85,0,0,0-4,1.51,7.2,7.2,0,0,0-1.93,3.17Z"/><path class="cls-3" d="M1081.27,416.76a5.47,5.47,0,0,0-1.66-1.18,4.77,4.77,0,0,0-2.21-.48,3.34,3.34,0,0,0-2.2.75,2.12,2.12,0,0,0-.48,1.4,1.4,1.4,0,0,0,.48,1.18,5.14,5.14,0,0,0,1.88.86l2,.65a9.93,9.93,0,0,1,3.6,2.1,6.25,6.25,0,0,1,1.61,4.41,8.17,8.17,0,0,1-2.42,6,10.35,10.35,0,0,1-7.63,2.74,12.47,12.47,0,0,1-5.48-1.13,14.3,14.3,0,0,1-3.55-2.74l3.92-4a6.8,6.8,0,0,0,2.15,1.94,5.94,5.94,0,0,0,2.69.75,4.35,4.35,0,0,0,2.52-.7,2.62,2.62,0,0,0,.91-2,2,2,0,0,0-.59-1.45,7.73,7.73,0,0,0-2.31-1.13l-1.61-.64a8.62,8.62,0,0,1-3.06-1.88,5.07,5.07,0,0,1-1.56-4,7.63,7.63,0,0,1,2.31-5.54,9.24,9.24,0,0,1,6.61-2.26,13,13,0,0,1,4.57.75,13.6,13.6,0,0,1,2.9,1.61Z"/><path class="cls-3" d="M1129.49,415.2h16.45c-.38,4.08-1.67,10.64-6.07,15-4,4-8.76,4.95-13.06,4.95a17.35,17.35,0,0,1-12.58-4.68c-2.53-2.42-4.89-6.29-4.89-12.31a20.72,20.72,0,0,1,6.07-14.94c2.9-2.79,7.52-5.54,14.62-5.54a17.59,17.59,0,0,1,9.51,2.53,16.31,16.31,0,0,1,5.38,5.59l-6.29,3.6a9.92,9.92,0,0,0-3.6-3.82,10.69,10.69,0,0,0-5.8-1.56,12.06,12.06,0,0,0-8.76,3.49,14.85,14.85,0,0,0-3.92,10.27,11,11,0,0,0,3.12,8.06,10.52,10.52,0,0,0,7.68,3,10.81,10.81,0,0,0,7.31-2.42,12.2,12.2,0,0,0,3.33-5.21h-9.25Z"/><path class="cls-3" d="M1164.22,395.2l-4.84,39.18h-6.55l4.84-39.18Z"/><path class="cls-3" d="M1193.41,413.69a10.88,10.88,0,0,1,3,7.74,13.36,13.36,0,0,1-4.14,9.78c-3.06,2.9-6.56,3.92-10.69,3.92-3.33,0-6.45-.7-9-3.22a10.62,10.62,0,0,1-3.06-7.9,13.9,13.9,0,0,1,4-9.73c1.88-1.83,5.22-3.92,10.64-3.92C1188.79,410.36,1191.64,411.92,1193.41,413.69Zm-6.07,13.6a7.74,7.74,0,0,0,2.21-5.21,6.24,6.24,0,0,0-1.72-4.3,6.31,6.31,0,0,0-4.24-1.61,7.44,7.44,0,0,0-4.95,1.88,7.73,7.73,0,0,0-2.31,5.54,6.1,6.1,0,0,0,1.61,4.09,6.33,6.33,0,0,0,4.3,1.67A7.27,7.27,0,0,0,1187.34,427.29Z"/><path class="cls-3" d="M1212.82,414.12a8,8,0,0,1,2.9-2.58,9.17,9.17,0,0,1,4.89-1.18,9.71,9.71,0,0,1,7.15,2.58,10.76,10.76,0,0,1,3.17,8.17,15,15,0,0,1-4,10.69c-2.63,2.63-5.59,3.33-8.87,3.33a9.16,9.16,0,0,1-4.95-1.13,6.41,6.41,0,0,1-2.36-2.63l-.38,3h-6.56l4.84-39.18h6.55Zm.27,4a7,7,0,0,0-2,5.11,5.93,5.93,0,0,0,1.61,4.41,6.36,6.36,0,0,0,4.46,1.67,7.11,7.11,0,0,0,4.84-1.88,8.14,8.14,0,0,0,2.1-5.7,5.27,5.27,0,0,0-1.61-4,5.91,5.91,0,0,0-4.3-1.61A6.53,6.53,0,0,0,1213.09,418.16Z"/><path class="cls-3" d="M1259.11,411.11h6.55l-2.85,23.27h-6.56l.38-3a10.59,10.59,0,0,1-3,2.63,8.23,8.23,0,0,1-4.35,1.13,10.27,10.27,0,0,1-7.63-3,11.13,11.13,0,0,1-3.12-8.22,14.18,14.18,0,0,1,3.6-9.94,12.47,12.47,0,0,1,9.19-3.66,9.33,9.33,0,0,1,4.62,1.13,6.84,6.84,0,0,1,2.74,2.63Zm-11.4,6.72a7.46,7.46,0,0,0-2.31,5.37,6.3,6.3,0,0,0,1.77,4.62,6,6,0,0,0,4.3,1.51,6.73,6.73,0,0,0,4.62-1.67,7.63,7.63,0,0,0,2.31-5.59,6,6,0,0,0-1.61-4.14,5.93,5.93,0,0,0-4.52-1.77A6.68,6.68,0,0,0,1247.71,417.83Z"/><path class="cls-3" d="M1282.22,411.11l-2.85,23.27h-6.56l2.85-23.27Zm-4.73-12.42a4.13,4.13,0,0,1,3.12-1.34,3.45,3.45,0,0,1,2.47,1,3.58,3.58,0,0,1,1,2.53,4.26,4.26,0,0,1-1.29,3,4.37,4.37,0,0,1-3.12,1.34,3.54,3.54,0,0,1-2.47-1,3.28,3.28,0,0,1-1-2.47A4.32,4.32,0,0,1,1277.49,398.7Z"/><path class="cls-3" d="M1304.32,416.76a5.48,5.48,0,0,0-1.67-1.18,4.75,4.75,0,0,0-2.2-.48,3.34,3.34,0,0,0-2.21.75,2.14,2.14,0,0,0-.48,1.4,1.4,1.4,0,0,0,.48,1.18,5.13,5.13,0,0,0,1.88.86l2,.65a9.94,9.94,0,0,1,3.6,2.1,6.26,6.26,0,0,1,1.61,4.41,8.17,8.17,0,0,1-2.42,6,10.36,10.36,0,0,1-7.63,2.74,12.45,12.45,0,0,1-5.48-1.13,14.25,14.25,0,0,1-3.55-2.74l3.92-4a6.77,6.77,0,0,0,2.15,1.94,5.93,5.93,0,0,0,2.69.75,4.36,4.36,0,0,0,2.53-.7,2.62,2.62,0,0,0,.91-2,2,2,0,0,0-.59-1.45,7.69,7.69,0,0,0-2.31-1.13l-1.61-.64a8.61,8.61,0,0,1-3.06-1.88,5.07,5.07,0,0,1-1.56-4,7.62,7.62,0,0,1,2.31-5.54,9.24,9.24,0,0,1,6.61-2.26,12.94,12.94,0,0,1,4.57.75,13.63,13.63,0,0,1,2.9,1.61Z"/><path class="cls-3" d="M1354.58,428.15a12.9,12.9,0,0,1-4.95,5.43,14.28,14.28,0,0,1-7,1.56c-3.12,0-6.18-.59-8.65-3.22a10.48,10.48,0,0,1-2.79-7.53,15.07,15.07,0,0,1,4-10.59,12.42,12.42,0,0,1,9.3-3.44c2.8,0,5.7.54,8,2.69,2.53,2.42,3,5.59,3,8.44a15.7,15.7,0,0,1-.11,2.36H1338a5.42,5.42,0,0,0,1.34,4.68,5,5,0,0,0,3.82,1.45,7.39,7.39,0,0,0,3.55-.75,6.92,6.92,0,0,0,2.26-2.42Zm-4.84-8.49a5.05,5.05,0,0,0-1.45-3.39,5.43,5.43,0,0,0-3.65-1.29,5.85,5.85,0,0,0-4,1.51,7.23,7.23,0,0,0-1.93,3.17Z"/><path class="cls-3" d="M1365.82,411.11h6.56l-.32,2.63a10,10,0,0,1,2.79-2.31,8.4,8.4,0,0,1,4.19-1.08,7.77,7.77,0,0,1,4.35,1.24,6.42,6.42,0,0,1,2.47,3,7.62,7.62,0,0,1,2.74-3,7.94,7.94,0,0,1,4.62-1.29,8.9,8.9,0,0,1,5.91,1.93c1.72,1.61,1.88,3.66,1.88,5.43a24.42,24.42,0,0,1-.27,3.82l-1.56,12.85h-6.56l1.34-11.07a27.93,27.93,0,0,0,.32-3.39,4.16,4.16,0,0,0-1-3.12,4.07,4.07,0,0,0-5.37.32c-1.08,1.07-1.83,2.79-2.21,5.91l-1.34,11.34h-6.56l1.34-10.8c.05-.64.33-2.74.33-3.65a4.47,4.47,0,0,0-.91-3.06,3.46,3.46,0,0,0-2.47-.91,4.18,4.18,0,0,0-3.17,1.34c-1.13,1.24-1.77,3.6-2,6l-1.34,11.07H1363Z"/><path class="cls-3" d="M1441.08,398.54c2.74,0,6.29.38,8.92,3.12a9.54,9.54,0,0,1,2.52,6.88,10.65,10.65,0,0,1-3,7.74,13.06,13.06,0,0,1-6.61,3.12l9.14,15h-8.39L1435.92,420h-.86l-1.77,14.41h-7l4.41-35.85Zm-5.43,16.5h2.47a8.3,8.3,0,0,0,5.59-1.88,5.59,5.59,0,0,0,1.56-4.09,4.42,4.42,0,0,0-1.45-3.49,6.84,6.84,0,0,0-4.62-1.34H1437Z"/><path class="cls-3" d="M1470.7,412.4h15.16l1.72-13.87h7l-4.41,35.85h-7l1.93-16H1470l-1.94,16h-7l4.41-35.85h7Z"/><path class="cls-2" d="M421.25,187.31a86.28,86.28,0,0,0-104.62,7.23A86.5,86.5,0,0,0,173,259.22h0V505.88h58.81V259.35h0a27.68,27.68,0,0,1,55.36,0h0V505.88H346V259.35h0a27.65,27.65,0,0,1,45.74-20.8A98.45,98.45,0,0,1,421.25,187.31Z"/><path class="cls-4" d="M716.35,173a86,86,0,0,0-47.48,14.28,98.45,98.45,0,0,1,29.47,51.2A27.68,27.68,0,0,1,744,259.35V419.51a27.69,27.69,0,0,1-55.39,0V259.22a86.48,86.48,0,0,0-143.58-64.69,86.5,86.5,0,0,0-143.61,64.69h0V505.88h58.81V259.35h0a27.68,27.68,0,0,1,55.36,0h0V505.88h58.81V259.35h0a27.68,27.68,0,0,1,55.36-.13v.13h0l0,160.31a86.5,86.5,0,0,0,173,0V259.22A86.49,86.49,0,0,0,716.35,173Z"/><path class="cls-5" d="M917,259.22V419.51a27.69,27.69,0,0,1-55.39,0V259.35a27.68,27.68,0,0,1,45.7-20.87,98.45,98.45,0,0,1,29.47-51.2,86.39,86.39,0,0,0-134,71.94V419.66a86.5,86.5,0,0,0,173,0l0-160.31h0v-.13Z"/><path class="cls-5" d="M407.64,58.81H567.93a27.69,27.69,0,0,1,0,55.39H407.77A27.68,27.68,0,0,1,386.9,68.5,98.45,98.45,0,0,1,335.7,39a86.39,86.39,0,0,0,71.94,134H568.08a86.5,86.5,0,0,0,0-173L407.77,0V0h-.13Z"/><path class="cls-5" d="M407.64,620.07H567.93a27.69,27.69,0,0,0,0-55.39H407.77a27.68,27.68,0,0,0-20.87,45.7,98.45,98.45,0,0,0-51.2,29.47,86.39,86.39,0,0,1,71.94-134H568.08a86.5,86.5,0,0,1,0,173l-160.31,0v0h-.13Z"/><path class="cls-5" d="M58.81,259.22V419.51a27.69,27.69,0,0,0,55.39,0V259.35a27.68,27.68,0,0,0-45.7-20.87A98.45,98.45,0,0,0,39,187.28a86.39,86.39,0,0,1,134,71.94V419.66a86.5,86.5,0,0,1-173,0L0,259.35H0v-.13Z"/><path class="cls-5" d="M1606.59,265V425.29a27.69,27.69,0,0,1-55.39,0V265.13a27.68,27.68,0,0,1,45.7-20.87,98.45,98.45,0,0,1,29.47-51.2,86.39,86.39,0,0,0-134,71.94V425.44a86.5,86.5,0,0,0,173,0l0-160.31h0V265Z"/></svg>